<svg xmlns="http://www.w3.org/2000/svg" aria-hidden="true" style="position:absolute;width:0;height:0;overflow:hidden">
  <defs>
    <symbol id="facebook" viewBox="0 0 32 32">
      <path d="M21.329 5.313h2.921V.225C23.746.156 22.013 0 19.994 0c-4.212 0-7.097 2.649-7.097 7.519V12H8.249v5.688h4.648V32h5.699V17.689h4.46l.708-5.688h-5.169V8.082c.001-1.644.444-2.769 2.735-2.769z"/>
    </symbol>
    <symbol id="instagram" viewBox="0 0 32 32">
      <path d="M31.969 9.408c-.075-1.7-.35-2.869-.744-3.882-.406-1.075-1.031-2.038-1.85-2.838A7.8671 7.8671 0 0 0 26.543.844C25.524.45 24.361.175 22.661.1 20.948.019 20.404 0 16.06 0s-4.888.019-6.595.094c-1.7.075-2.869.35-3.882.744-1.075.406-2.038 1.031-2.838 1.85-.813.8-1.444 1.769-1.844 2.832C.507 6.539.232 7.702.157 9.402c-.081 1.713-.1 2.257-.1 6.601s.019 4.888.094 6.595c.075 1.7.35 2.869.744 3.882.406 1.075 1.038 2.038 1.85 2.838.8.813 1.769 1.444 2.832 1.844 1.019.394 2.182.669 3.882.744 1.706.075 2.25.094 6.595.094s4.888-.019 6.595-.094c1.7-.075 2.869-.35 3.882-.744a8.1843 8.1843 0 0 0 4.682-4.682c.394-1.019.669-2.182.744-3.882.075-1.707.094-2.251.094-6.595s-.006-4.888-.081-6.595zm-2.882 13.065c-.069 1.563-.331 2.407-.55 2.969a5.3097 5.3097 0 0 1-3.038 3.038c-.563.219-1.413.481-2.969.55-1.688.075-2.194.094-6.464.094s-4.782-.019-6.464-.094c-1.563-.069-2.407-.331-2.969-.55-.694-.256-1.325-.663-1.838-1.194-.531-.519-.938-1.144-1.194-1.838-.219-.563-.481-1.413-.55-2.969-.075-1.688-.094-2.194-.094-6.464s.019-4.782.094-6.464c.069-1.563.331-2.407.55-2.969.256-.694.663-1.325 1.2-1.838.519-.531 1.144-.938 1.838-1.194.563-.219 1.413-.481 2.969-.55 1.688-.075 2.194-.094 6.464-.094 4.276 0 4.782.019 6.464.094 1.563.069 2.407.331 2.969.55.694.256 1.325.662 1.838 1.194.531.519.938 1.144 1.194 1.838.219.563.481 1.413.55 2.969.075 1.688.094 2.194.094 6.464s-.019 4.77-.094 6.458z"/>
      <path d="M16.059 7.783c-4.538 0-8.22 3.682-8.22 8.22s3.682 8.22 8.22 8.22 8.22-3.682 8.22-8.22-3.682-8.22-8.22-8.22zm0 13.552c-2.944 0-5.332-2.388-5.332-5.332s2.388-5.332 5.332-5.332 5.332 2.388 5.332 5.332-2.388 5.332-5.332 5.332zM26.524 7.458c0 1.06-.859 1.919-1.919 1.919s-1.919-.859-1.919-1.919.859-1.919 1.919-1.919 1.919.859 1.919 1.919z"/>
    </symbol>
    <symbol id="linkedin" viewBox="0 0 32 32">
      <path d="M31.992 32v-.001H32V20.263c0-5.741-1.236-10.164-7.948-10.164-3.227 0-5.392 1.771-6.276 3.449h-.093v-2.913h-6.364v21.364h6.627V21.42c0-2.785.528-5.479 3.977-5.479 3.399 0 3.449 3.179 3.449 5.657v10.401h6.62zM.528 10.636h6.635V32H.528V10.636zM3.843 0C1.722 0 0 1.721 0 3.843s1.721 3.879 3.843 3.879c2.121 0 3.843-1.757 3.843-3.879C7.685 1.722 5.963 0 3.843 0z"/>
    </symbol>
    <symbol id="logo" viewBox="0 0 39 32">
      <path d="m22.371 9.64-.749-.571c-.117-.095-.267-.139-.416-.124s-.288.088-.384.204l-10.36 11.897.16.177 2.566-2.366c-.085-.034-.156-.098-.2-.179s-.058-.175-.039-.265c.018-.09.068-.171.14-.229s.162-.088.254-.087c.083 0 .164.027.231.076s.116.119.141.198l3.383-3.137c.052-.042.116-.064.183-.064s.131.023.183.064l.171.126a.2852.2852 0 0 0 .383-.045l4.423-4.96c.047-.049.083-.108.105-.172s.03-.133.024-.2c-.006-.068-.027-.133-.062-.192s-.08-.11-.136-.149z"/>
      <path d="M27.24 12.989a23.103 23.103 0 0 1-7.497 3.514c-2.67.679-5.402 1.085-8.154 1.211.055.406.155.804.297 1.189 1.554 1.406 13.257-.994 15.543-3.771.486-.577-.189-2.143-.189-2.143zm-13.897 5.868c-.077 0-.152-.023-.216-.066s-.114-.103-.143-.174-.037-.149-.022-.224c.015-.075.052-.145.106-.199s.124-.091.199-.106c.075-.015.153-.007.225.022s.132.079.174.143.066.139.066.216c.001.051-.009.102-.028.15s-.048.091-.084.127a.3844.3844 0 0 1-.277.112zM2.286 12.166l.091-.394 1.486.337c.123.226.198.475.223.731.028.271.011.546-.051.811-.074.369-.243.712-.491.994-.236.267-.54.464-.88.571-.35.108-.723.122-1.08.04a1.998 1.998 0 0 1-.954-.503c-.262-.242-.45-.553-.543-.897a2.1526 2.1526 0 0 1 0-1.143c.061-.28.172-.547.326-.789.146-.22.342-.402.571-.531l.206.314c-.197.121-.366.282-.496.473s-.218.408-.258.635c-.071.296-.065.604.017.897.077.278.229.529.44.726.217.21.488.354.783.417.286.08.588.08.874 0 .274-.09.52-.25.714-.463.2-.23.337-.507.4-.806.094-.362.07-.744-.069-1.091l-1.309-.331zM5.52 8.571l-1.331 1.777.571 1.023-.263.354-2.114-3.857.246-.337 4.303.926-.269.354-1.143-.24zm-.377-.091-2.286-.514L4 10.017 5.143 8.48zM5.143 4.886l.343-.257 2.177 2.914L9.457 6.2l.217.291-2.131 1.594-2.4-3.2zM8.743 2.503l.383-.171 1.509 3.303 2.04-.926.149.331-2.423 1.103-1.657-3.64zM16.274 3.817l.086.36-2.754.646-.914-3.897 2.674-.623.08.354-2.286.531.326 1.383 2.011-.474.086.354-2.017.469.343 1.446 2.366-.549zM20.2 3.96l-.954-1.257c-.107.006-.213.006-.32 0l-1.074.034.04 1.269h-.423l-.131-4L18.858 0c.43-.04.86.076 1.211.326.148.119.268.271.349.443s.122.361.12.551c.017.282-.057.563-.211.8-.164.228-.396.398-.663.486l1 1.337-.463.017zm-.4-1.88c.103-.094.182-.211.233-.34s.07-.269.058-.408c.003-.139-.026-.278-.084-.405S19.862.689 19.754.6a1.385 1.385 0 0 0-.897-.234l-1.086.04.069 2 1.063-.034c.324.012.642-.091.897-.291zM23.223 2.897l-.206 1.366L22.6 4.2l.211-1.343L21.628 0l.446.069 1.011 2.434L24.799.486l.4.086-1.977 2.326zM28.874 2.657l.497.646-.217.171-.497-.663-.314.749-.24-.103.32-.749-.823.109v-.274l.811-.091-.503-.646.223-.171.44.651.309-.754.246.103-.291.766.823-.114v.28l-.783.091zM30.783 7.263a1.5878 1.5878 0 0 1-.246-.691l.337-.149c.025.226.099.445.217.64.128.219.294.412.491.571.204.195.464.321.743.36.101.009.203-.006.296-.045s.176-.1.241-.178c.047-.052.084-.114.106-.181s.031-.138.025-.208a1.0644 1.0644 0 0 0-.137-.394 6.0308 6.0308 0 0 0-.349-.509c-.152-.199-.29-.409-.411-.629a1.152 1.152 0 0 1-.149-.537c0-.212.079-.416.223-.571.124-.151.289-.264.474-.326.207-.06.427-.06.634 0 .267.087.514.227.726.411.176.146.332.315.463.503.121.174.212.367.269.571l-.326.171c-.057-.19-.142-.372-.251-.537a2.0138 2.0138 0 0 0-.383-.394c-.201-.194-.46-.317-.737-.349-.102-.009-.204.008-.298.049s-.176.104-.239.185c-.049.051-.086.113-.108.18s-.031.138-.023.209c.013.144.06.283.137.406.08.131.194.303.349.509.153.195.291.401.411.617.095.164.148.348.154.537 0 .212-.079.416-.223.571-.125.153-.292.266-.48.326-.207.062-.428.062-.634 0a2.1233 2.1233 0 0 1-.731-.411 2.5911 2.5911 0 0 1-.571-.709zM36.531 8.097l-.806-1.143.297-.211 1.857 2.651-.297.211-.806-1.143-2.983 2.086-.24-.349 2.977-2.103zM35.251 12.794c.102-.345.3-.655.571-.891.265-.238.589-.401.937-.474.355-.082.726-.068 1.074.04.336.111.638.308.874.571.246.283.414.626.486.994a2.17 2.17 0 0 1 0 1.103c-.105.344-.303.652-.571.891-.273.244-.604.413-.961.491s-.729.062-1.079-.046a1.9157 1.9157 0 0 1-.874-.571 2.1555 2.1555 0 0 1-.486-.989c-.087-.37-.078-.755.029-1.12zM36 14.611c.191.217.438.377.714.463.285.083.586.092.875.028s.558-.199.782-.394c.211-.194.367-.441.451-.714.08-.289.087-.593.023-.886s-.2-.565-.394-.794a1.6347 1.6347 0 0 0-.737-.463 1.705 1.705 0 0 0-.88 0c-.291.056-.56.192-.777.394a1.591 1.591 0 0 0-.451.72c-.078.29-.078.596 0 .886.063.284.199.546.394.76zM34.817 19.428l1.48-.571c0-.103.034-.206.063-.314l.28-1.034-1.211-.314.109-.406 3.863 1.034-.389 1.446c-.088.422-.323.799-.663 1.063-.156.109-.336.18-.524.207s-.381.012-.562-.047c-.276-.06-.523-.212-.7-.431s-.275-.492-.277-.775l-1.577.571.109-.429zm1.914.16c.067.121.158.228.267.314s.235.148.368.184c.134.036.274.044.411.024s.269-.067.388-.139c.252-.203.424-.488.486-.806l.274-1.029-1.937-.52-.274 1.029c-.105.306-.099.64.017.943zM32.766 23.109l-.291-.223 1.714-2.257 3.189 2.417-1.657 2.189-.291-.223 1.4-1.846-1.143-.863-1.251 1.651-.286-.217 1.28-1.651-1.183-.897-1.48 1.92zM31.429 27.663l-.817.046v-.274l.817-.006-.44-.68.223-.143.434.686.354-.766.246.131-.389.72.817-.046v.28h-.829l.44.68-.223.143-.434-.686-.377.743-.24-.137.417-.691zM24 27.206l.691.383a1.78 1.78 0 0 1 1.143-.903c.227-.071.466-.096.703-.074.206.016.403.087.571.206.152.115.264.275.32.457.069.226.057.468-.034.686-.143.296-.337.564-.571.794.188.101.363.226.52.371a.983.983 0 0 1 .234.394.7613.7613 0 0 1-.149.669c-.153.22-.38.376-.64.44a.9956.9956 0 0 1-.709 0c-.102-.044-.191-.11-.263-.194s-.122-.184-.149-.291a.7734.7734 0 0 1 .04-.571c.131-.26.303-.497.509-.703l-1.377-.766c-.053.269-.064.545-.034.817h-.349c-.023-.336.015-.673.114-.994l-.72-.4.149-.32zm.994.571 1.514.84c.198-.189.363-.412.486-.657a.7226.7226 0 0 0 0-.514.6182.6182 0 0 0-.4-.429c-.237-.08-.494-.08-.731 0-.194.051-.374.144-.528.273s-.278.289-.363.47l.023.017zm2.149 2.286c.037-.063.061-.134.069-.206s0-.147-.023-.216a.7006.7006 0 0 0-.183-.297 2.4517 2.4517 0 0 0-.474-.314c-.173.171-.325.363-.451.571a.5757.5757 0 0 0-.046.423c.018.065.05.126.093.178s.097.095.158.124a.637.637 0 0 0 .451 0 .6805.6805 0 0 0 .383-.269l.023.006zM17.034 31.611l.08-4h.406l-.063 3.2 1.623-2.663h.2l1.52 2.709.057-3.183h.406l-.074 4h-.349l-1.68-2.989-1.777 2.931-.349-.006zM15.046 27.429c.261.249.448.566.54.915s.085.717-.02 1.062c-.094.354-.281.675-.543.931-.254.25-.573.424-.92.503-.366.083-.748.071-1.109-.034-.359-.088-.69-.267-.96-.52a1.9206 1.9206 0 0 1-.531-.903c-.088-.356-.081-.729.019-1.082s.291-.673.553-.93c.25-.249.561-.427.903-.514.365-.082.744-.071 1.103.034.363.092.696.277.966.537zm-1.949-.2c-.28.065-.535.208-.737.411-.21.21-.361.472-.434.76-.08.286-.08.588 0 .874.067.278.212.532.417.731.215.21.481.362.771.44.291.074.595.074.886 0 .28-.069.536-.211.743-.411.209-.21.359-.473.434-.76.08-.288.08-.592 0-.88-.073-.277-.219-.53-.423-.731-.216-.211-.484-.36-.777-.434-.288-.08-.592-.08-.88 0zM8.771 24.571l.154 1.571c.098.042.193.09.286.143l.931.537.629-1.109.371.211-2 3.446-1.303-.749a1.8128 1.8128 0 0 1-.857-.914c-.062-.179-.083-.369-.061-.557s.086-.369.187-.529c.133-.25.343-.451.6-.571.261-.108.549-.13.823-.063l-.166-1.68.406.263zm-.651 1.806c-.134.034-.26.094-.371.178s-.203.188-.271.308c-.069.12-.113.253-.129.39s-.005.277.034.41c.134.296.366.536.657.68l.92.531 1-1.714-.92-.531c-.264-.198-.59-.297-.92-.28v.029zM5.389 21.892l.257-.257 1.971 2.029-2.857 2.789-1.903-1.966.263-.257 1.617 1.663.977-.989-1.417-1.474.274-.263 1.446 1.486 1.063-1.034-1.691-1.726zM1.143 19.646l.137-.789.269.04-.154.811.76-.28.091.251-.771.263.634.537-.183.206-.611-.571-.143.811-.274-.051.16-.811-.766.274-.086-.223.766-.269-.634-.531.189-.206.617.537z"/>
    </symbol>
    <symbol id="mail" viewBox="0 0 32 32">
      <path fill="none" stroke="#9da4bd" stroke-linecap="round" stroke-linejoin="round" stroke-width="1.3333" d="M6.4 6.667h19.2c1.32 0 2.4 1.05 2.4 2.333v14c0 1.283-1.08 2.333-2.4 2.333H6.4C5.08 25.333 4 24.283 4 23V9c0-1.283 1.08-2.333 2.4-2.333z" style="stroke:var(--color1, #9da4bd)"/>
      <path fill="none" stroke="#9da4bd" stroke-linecap="round" stroke-linejoin="round" stroke-width="1.3333" d="m26.667 9.333-10.667 8-10.667-8" style="stroke:var(--color1, #9da4bd)"/>
    </symbol>
    <symbol id="map-pin" viewBox="0 0 32 32">
      <path fill="none" stroke="#9da4bd" stroke-linecap="round" stroke-linejoin="round" stroke-width="1.3333" d="M26.667 13.818C26.667 21.454 16 28 16 28S5.333 21.455 5.333 13.818C5.333 8.396 10.109 4 16 4s10.667 4.396 10.667 9.818v0z" style="stroke:var(--color1, #9da4bd)"/>
      <path fill="none" stroke="#9da4bd" stroke-linecap="round" stroke-linejoin="round" stroke-width="1.3333" d="M16 18.667c2.209 0 4-1.791 4-4s-1.791-4-4-4-4 1.791-4 4 1.791 4 4 4z" style="stroke:var(--color1, #9da4bd)"/>
    </symbol>
    <symbol id="phone" viewBox="0 0 32 32">
      <path fill="none" stroke="#9da4bd" stroke-linecap="round" stroke-linejoin="round" stroke-width="1.3333" d="M26.666 21.337v3.218c.002.604-.25 1.181-.695 1.589s-1.042.61-1.643.556a21.2388 21.2388 0 0 1-9.257-3.293 20.9136 20.9136 0 0 1-6.436-6.436 21.2212 21.2212 0 0 1-3.293-9.3c-.054-.6.146-1.195.552-1.639s.98-.698 1.582-.699h3.218c1.077-.011 1.995.779 2.145 1.845.136 1.03.388 2.041.751 3.014.295.784.106 1.668-.483 2.263l-1.362 1.362a17.1622 17.1622 0 0 0 6.436 6.436l1.362-1.362a2.1463 2.1463 0 0 1 2.263-.483c.973.363 1.984.615 3.014.751 1.079.152 1.872 1.088 1.845 2.177z" style="stroke:var(--color1, #9da4bd)"/>
    </symbol>
    <symbol id="twitter" viewBox="0 0 32 32">
      <path d="M32 6.078c-1.19.522-2.458.868-3.78 1.036 1.36-.812 2.398-2.088 2.886-3.626-1.268.756-2.668 1.29-4.16 1.588C25.742 3.794 24.026 3 22.154 3c-3.632 0-6.556 2.948-6.556 6.562 0 .52.044 1.02.152 1.496-5.454-.266-10.28-2.88-13.522-6.862-.566.982-.898 2.106-.898 3.316 0 2.272 1.17 4.286 2.914 5.452-1.054-.02-2.088-.326-2.964-.808v.072c0 3.188 2.274 5.836 5.256 6.446-.534.146-1.116.216-1.72.216-.42 0-.844-.024-1.242-.112.85 2.598 3.262 4.508 6.13 4.57-2.232 1.746-5.066 2.798-8.134 2.798-.538 0-1.054-.024-1.57-.09C2.906 27.93 6.35 29 10.064 29c12.072 0 18.672-10 18.672-18.668 0-.29-.01-.57-.024-.848C30.014 8.56 31.108 7.406 32 6.078z"/>
    </symbol>
  </defs>
</svg>
